SmallCaps Light Display.ufo
<glyph name="A.sc" format="1">
  <advance width="1176"/>
  <outline>
    <contour>
      <point x="691" y="1165" type="move" name="top"/>
    </contour>
    <contour>
      <point x="995" y="16" type="move" name="ogonek"/>
    </contour>
    <contour>
      <point x="512" y="0" type="move" name="bottom"/>
    </contour>
    <contour>
      <point x="-88" y="28" type="line"/>
      <point x="-91" y="0" type="line"/>
      <point x="297" y="0" type="line"/>
      <point x="300" y="28" type="line"/>
      <point x="135" y="53" type="line"/>
      <point x="624" y="984" type="line"/>
      <point x="683" y="1116" type="line"/>
      <point x="648" y="1113" type="line"/>
      <point x="671" y="947" type="line"/>
      <point x="865" y="53" type="line"/>
      <point x="707" y="29" type="line"/>
      <point x="701" y="0" type="line"/>
      <point x="1150" y="0" type="line"/>
      <point x="1153" y="29" type="line"/>
      <point x="1026" y="51" type="line"/>
      <point x="770" y="1173" type="line"/>
      <point x="644" y="1172" type="line"/>
      <point x="38" y="52" type="line"/>
    </contour>
    <contour>
      <point x="276" y="418" type="line"/>
      <point x="277" y="366" type="line"/>
      <point x="854" y="366" type="line"/>
      <point x="853" y="418" type="line"/>
    </contour>
  </outline>
</glyph>
<glyph name="B.sc" format="1">
  <advance width="1112"/>
  <outline>
    <contour>
      <point x="608" y="1165" type="move" name="top"/>
    </contour>
    <contour>
      <point x="454" y="0" type="move" name="bottom"/>
    </contour>
    <contour>
      <point x="433" y="-12" type="curve"/>
      <point x="792" y="-12"/>
      <point x="1040" y="102"/>
      <point x="1035" y="360" type="curve"/>
      <point x="1032" y="508"/>
      <point x="906" y="596"/>
      <point x="723" y="604" type="curve"/>
      <point x="905" y="643"/>
      <point x="1031" y="764"/>
      <point x="1025" y="934" type="curve"/>
      <point x="1021" y="1061"/>
      <point x="916" y="1178"/>
      <point x="619" y="1178" type="curve"/>
      <point x="520" y="1178"/>
      <point x="444" y="1167"/>
      <point x="359" y="1165" type="curve"/>
      <point x="136" y="1165" type="line"/>
      <point x="132" y="1137" type="line"/>
      <point x="257" y="1112" type="line"/>
      <point x="106" y="54" type="line"/>
      <point x="-28" y="29" type="line"/>
      <point x="-32" y="0" type="line"/>
      <point x="185" y="0" type="line" smooth="yes"/>
      <point x="251" y="0"/>
      <point x="356" y="-12"/>
    </contour>
    <contour>
      <point x="243" y="60" type="curve"/>
      <point x="257" y="7" type="line"/>
      <point x="421" y="1154" type="line"/>
      <point x="385" y="1106" type="line"/>
      <point x="414" y="1127"/>
      <point x="540" y="1136"/>
      <point x="587" y="1136" type="curve"/>
      <point x="799" y="1136"/>
      <point x="862" y="1044"/>
      <point x="867" y="920" type="curve"/>
      <point x="874" y="731"/>
      <point x="726" y="621"/>
      <point x="582" y="622" type="curve"/>
      <point x="472" y="623"/>
      <point x="369" y="621"/>
      <point x="310" y="622" type="curve"/>
      <point x="302" y="576" type="line"/>
      <point x="349" y="577"/>
      <point x="412" y="577"/>
      <point x="561" y="577" type="curve"/>
      <point x="746" y="577"/>
      <point x="868" y="512"/>
      <point x="872" y="364" type="curve"/>
      <point x="879" y="146"/>
      <point x="722" y="30"/>
      <point x="454" y="30" type="curve"/>
      <point x="375" y="30"/>
      <point x="256" y="49"/>
    </contour>
  </outline>
</glyph>
<glyph name="C.sc" format="1">
  <advance width="1129"/>
  <outline>
    <contour>
      <point x="743" y="1165" type="move" name="top"/>
    </contour>
    <contour>
      <point x="573" y="0" type="move" name="bottom"/>
    </contour>
    <contour>
      <point x="949" y="1132" type="curve"/>
      <point x="965" y="726" type="line"/>
      <point x="1033" y="726" type="line"/>
      <point x="1080" y="1143" type="line"/>
      <point x="1019" y="1135"/>
      <point x="903" y="1184"/>
      <point x="731" y="1184" type="curve"/>
      <point x="360" y="1184"/>
      <point x="62" y="743"/>
      <point x="78" y="454" type="curve"/>
      <point x="88" y="213"/>
      <point x="203" y="-24"/>
      <point x="592" y="-24" type="curve"/>
      <point x="768" y="-24"/>
      <point x="894" y="55"/>
      <point x="965" y="34" type="curve"/>
      <point x="996" y="418" type="line"/>
      <point x="928" y="418" type="line"/>
      <point x="911" y="357"/>
      <point x="899" y="103"/>
      <point x="880" y="94" type="curve"/>
      <point x="843" y="42"/>
      <point x="701" y="20"/>
      <point x="620" y="20" type="curve"/>
      <point x="332" y="20"/>
      <point x="247" y="300"/>
      <point x="240" y="363" type="curve"/>
      <point x="225" y="814"/>
      <point x="374" y="1135"/>
      <point x="715" y="1135" type="curve"/>
      <point x="846" y="1135"/>
      <point x="908" y="1159"/>
    </contour>
  </outline>
</glyph>
<glyph name="D.sc" format="1">
  <advance width="1205"/>
  <outline>
    <contour>
      <point x="637" y="1167" type="move" name="top"/>
    </contour>
    <contour>
      <point x="483" y="0" type="move" name="bottom"/>
    </contour>
    <contour>
      <point x="379" y="1165" type="curve"/>
      <point x="136" y="1165" type="line"/>
      <point x="132" y="1137" type="line"/>
      <point x="257" y="1102" type="line"/>
      <point x="106" y="60" type="line"/>
      <point x="-27" y="33" type="line"/>
      <point x="-31" y="0" type="line"/>
      <point x="185" y="0" type="line" smooth="yes"/>
      <point x="332" y="0"/>
      <point x="384" y="-24"/>
      <point x="515" y="-24" type="curve"/>
      <point x="939" y="-24"/>
      <point x="1179" y="318"/>
      <point x="1171" y="742" type="curve"/>
      <point x="1164" y="927"/>
      <point x="1013" y="1178"/>
      <point x="640" y="1178" type="curve"/>
      <point x="555" y="1178"/>
      <point x="467" y="1163"/>
    </contour>
    <contour>
      <point x="261" y="31" type="curve"/>
      <point x="411" y="1121" type="line"/>
      <point x="465" y="1126"/>
      <point x="544" y="1134"/>
      <point x="608" y="1134" type="curve"/>
      <point x="893" y="1134"/>
      <point x="1001" y="996"/>
      <point x="1011" y="781" type="curve"/>
      <point x="1015" y="537"/>
      <point x="837" y="22"/>
      <point x="511" y="22" type="curve"/>
      <point x="413" y="22"/>
      <point x="331" y="28"/>
    </contour>
  </outline>
</glyph>
<glyph name="E.sc" format="1">
  <advance width="1072"/>
  <outline>
    <contour>
      <point x="120" y="1165" type="move" name="topleft"/>
    </contour>
    <contour>
      <point x="638" y="1165" type="move" name="top"/>
    </contour>
    <contour>
      <point x="904" y="24" type="move" name="ogonek"/>
    </contour>
    <contour>
      <point x="474" y="0" type="move" name="bottom"/>
    </contour>
    <contour>
      <point x="975" y="1165" type="line"/>
      <point x="136" y="1165" type="line"/>
      <point x="132" y="1137" type="line"/>
      <point x="257" y="1102" type="line"/>
      <point x="106" y="60" type="line"/>
      <point x="-27" y="33" type="line"/>
      <point x="-31" y="0" type="line"/>
      <point x="921" y="0" type="line"/>
      <point x="991" y="470" type="line"/>
      <point x="928" y="487" type="line"/>
      <point x="829" y="50" type="line"/>
      <point x="260" y="31" type="line"/>
      <point x="335" y="565" type="line"/>
      <point x="762" y="554" type="line"/>
      <point x="773" y="653" type="line"/>
      <point x="342" y="616" type="line"/>
      <point x="410" y="1134" type="line"/>
      <point x="875" y="1110" type="line"/>
      <point x="922" y="812" type="line"/>
      <point x="974" y="812" type="line"/>
    </contour>
  </outline>
</glyph>
<glyph name="F.sc" format="1">
  <advance width="924"/>
  <outline>
    <contour>
      <point x="528" y="-129" type="move" name="btm"/>
    </contour>
    <contour>
      <point x="636" y="1165" type="move" name="top"/>
    </contour>
    <contour>
      <point x="-31" y="0" type="line"/>
      <point x="468" y="0" type="line"/>
      <point x="472" y="33" type="line"/>
      <point x="259" y="93" type="line"/>
      <point x="335" y="565" type="line"/>
      <point x="744" y="554" type="line"/>
      <point x="755" y="653" type="line"/>
      <point x="343" y="616" type="line"/>
      <point x="412" y="1134" type="line"/>
      <point x="858" y="1110" type="line"/>
      <point x="905" y="812" type="line"/>
      <point x="956" y="812" type="line"/>
      <point x="958" y="1165" type="line"/>
      <point x="136" y="1165" type="line"/>
      <point x="132" y="1137" type="line"/>
      <point x="257" y="1102" type="line"/>
      <point x="106" y="60" type="line"/>
      <point x="-27" y="31" type="line"/>
    </contour>
  </outline>
</glyph>
<glyph name="G.sc" format="1">
  <advance width="1232"/>
  <outline>
    <contour>
      <point x="738" y="1165" type="move" name="top"/>
    </contour>
    <contour>
      <point x="613" y="0" type="move" name="bottom"/>
    </contour>
    <contour>
      <point x="603" y="-24" type="curve"/>
      <point x="715" y="-24"/>
      <point x="818" y="12"/>
      <point x="891" y="34" type="curve"/>
      <point x="957" y="35"/>
      <point x="991" y="45"/>
      <point x="1027" y="42" type="curve"/>
      <point x="1098" y="582" type="line"/>
      <point x="726" y="582" type="line"/>
      <point x="720" y="575" type="line"/>
      <point x="945" y="521" type="line"/>
      <point x="896" y="4" type="line"/>
      <point x="830" y="9"/>
      <point x="712" y="20"/>
      <point x="610" y="20" type="curve"/>
      <point x="350" y="20"/>
      <point x="247" y="300"/>
      <point x="240" y="363" type="curve"/>
      <point x="225" y="845"/>
      <point x="374" y="1135"/>
      <point x="734" y="1135" type="curve"/>
      <point x="894" y="1135"/>
      <point x="958" y="1115"/>
      <point x="1006" y="1106" type="curve"/>
      <point x="1017" y="811" type="line"/>
      <point x="1085" y="811" type="line"/>
      <point x="1128" y="1143" type="line"/>
      <point x="1118" y="1142"/>
      <point x="1107" y="1146"/>
      <point x="1093" y="1153" type="curve"/>
      <point x="1027" y="1165"/>
      <point x="919" y="1184"/>
      <point x="750" y="1184" type="curve"/>
      <point x="360" y="1184"/>
      <point x="62" y="775"/>
      <point x="78" y="454" type="curve"/>
      <point x="88" y="213"/>
      <point x="203" y="-24"/>
    </contour>
  </outline>
</glyph>
<glyph name="H.sc" format="1">
  <advance width="1273"/>
  <outline>
    <contour>
      <point x="741" y="1165" type="move" name="top"/>
    </contour>
    <contour>
      <point x="575" y="0" type="move" name="bottom"/>
    </contour>
    <contour>
      <point x="-27" y="31" type="line"/>
      <point x="-31" y="0" type="line"/>
      <point x="392" y="0" type="line"/>
      <point x="396" y="31" type="line"/>
      <point x="260" y="60" type="line"/>
      <point x="411" y="1102" type="line"/>
      <point x="536" y="1137" type="line"/>
      <point x="540" y="1165" type="line"/>
      <point x="136" y="1165" type="line"/>
      <point x="132" y="1137" type="line"/>
      <point x="257" y="1102" type="line"/>
      <point x="106" y="60" type="line"/>
    </contour>
    <contour>
      <point x="758" y="33" type="line"/>
      <point x="754" y="0" type="line"/>
      <point x="1177" y="0" type="line"/>
      <point x="1181" y="33" type="line"/>
      <point x="1046" y="60" type="line"/>
      <point x="1197" y="1102" type="line"/>
      <point x="1321" y="1137" type="line"/>
      <point x="1325" y="1165" type="line"/>
      <point x="922" y="1165" type="line"/>
      <point x="918" y="1137" type="line"/>
      <point x="1043" y="1102" type="line"/>
      <point x="892" y="60" type="line"/>
    </contour>
    <contour>
      <point x="1028" y="626" type="line"/>
      <point x="298" y="626" type="line"/>
      <point x="299" y="574" type="line"/>
      <point x="1029" y="574" type="line"/>
    </contour>
  </outline>
</glyph>
<glyph name="I.sc" format="1">
  <advance width="522"/>
  <outline>
    <contour>
      <point x="377" y="-129" type="move" name="btm"/>
    </contour>
    <contour>
      <point x="142" y="1165" type="move" name="topleft"/>
    </contour>
    <contour>
      <point x="368" y="1165" type="move" name="top"/>
    </contour>
    <contour>
      <point x="347" y="16" type="move" name="ogonek"/>
    </contour>
    <contour>
      <point x="207" y="0" type="move" name="bottom"/>
    </contour>
    <contour>
      <point x="-12" y="29" type="line"/>
      <point x="-16" y="0" type="line"/>
      <point x="411" y="0" type="line"/>
      <point x="415" y="29" type="line"/>
      <point x="279" y="54" type="line"/>
      <point x="430" y="1112" type="line"/>
      <point x="555" y="1137" type="line"/>
      <point x="559" y="1165" type="line"/>
      <point x="151" y="1165" type="line"/>
      <point x="147" y="1137" type="line"/>
      <point x="272" y="1112" type="line"/>
      <point x="121" y="54" type="line"/>
    </contour>
  </outline>
</glyph>
<glyph name="J.sc" format="1">
  <advance width="550"/>
  <outline>
    <contour>
      <point x="253" y="-129" type="move" name="btm"/>
    </contour>
    <contour>
      <point x="410" y="1165" type="move" name="top"/>
    </contour>
    <contour>
      <point x="-150" y="-247" type="line"/>
      <point x="42" y="-176"/>
      <point x="246" y="6"/>
      <point x="293" y="162" type="curve"/>
      <point x="323" y="432"/>
      <point x="383" y="628"/>
      <point x="440" y="1106" type="curve"/>
      <point x="585" y="1137" type="line"/>
      <point x="589" y="1165" type="line"/>
      <point x="165" y="1165" type="line"/>
      <point x="161" y="1137" type="line"/>
      <point x="290" y="1103" type="line"/>
      <point x="252" y="772"/>
      <point x="207" y="494"/>
      <point x="153" y="160" type="curve"/>
      <point x="126" y="6"/>
      <point x="28" y="-147"/>
      <point x="-170" y="-204" type="curve"/>
    </contour>
  </outline>
</glyph>
<glyph name="K.sc" format="1">
  <advance width="1192"/>
  <outline>
    <contour>
      <point x="720" y="1165" type="move" name="top"/>
    </contour>
    <contour>
      <point x="611" y="0" type="move" name="bottom"/>
    </contour>
    <contour>
      <point x="-31" y="0" type="line"/>
      <point x="391" y="0" type="line"/>
      <point x="395" y="31" type="line"/>
      <point x="259" y="60" type="line"/>
      <point x="410" y="1102" type="line"/>
      <point x="535" y="1137" type="line"/>
      <point x="539" y="1165" type="line"/>
      <point x="136" y="1165" type="line"/>
      <point x="132" y="1137" type="line"/>
      <point x="257" y="1102" type="line"/>
      <point x="106" y="60" type="line"/>
      <point x="-27" y="31" type="line"/>
    </contour>
    <contour>
      <point x="290" y="493" type="line"/>
      <point x="1073" y="1092" type="line"/>
      <point x="1196" y="1140" type="line"/>
      <point x="1202" y="1165" type="line"/>
      <point x="835" y="1165" type="line"/>
      <point x="832" y="1140" type="line"/>
      <point x="979" y="1095" type="line"/>
      <point x="292" y="517" type="line"/>
    </contour>
    <contour>
      <point x="883" y="0" type="curve"/>
      <point x="1105" y="0" type="line"/>
      <point x="1109" y="34" type="line"/>
      <point x="1006" y="50" type="line"/>
      <point x="970" y="98"/>
      <point x="905" y="300"/>
      <point x="807" y="481" type="curve"/>
      <point x="746" y="719"/>
      <point x="628" y="787"/>
      <point x="576" y="880" type="curve"/>
      <point x="487" y="593" type="line"/>
      <point x="533" y="525"/>
      <point x="629" y="177"/>
      <point x="687" y="45" type="curve"/>
      <point x="757" y="-46"/>
      <point x="840" y="-3"/>
    </contour>
  </outline>
</glyph>
<glyph name="L.sc" format="1">
  <advance width="974"/>
  <outline>
    <contour>
      <point x="743" y="870" type="move" name="car"/>
    </contour>
    <contour>
      <point x="384" y="1165" type="move" name="top"/>
    </contour>
    <contour>
      <point x="486" y="0" type="move" name="bottom"/>
    </contour>
    <contour>
      <point x="-31" y="0" type="line"/>
      <point x="840" y="0" type="line"/>
      <point x="920" y="486" type="line"/>
      <point x="857" y="506" type="line"/>
      <point x="747" y="58" type="line"/>
      <point x="260" y="31" type="line"/>
      <point x="410" y="1105" type="line"/>
      <point x="553" y="1137" type="line"/>
      <point x="557" y="1165" type="line"/>
      <point x="136" y="1165" type="line"/>
      <point x="132" y="1137" type="line"/>
      <point x="257" y="1102" type="line"/>
      <point x="106" y="60" type="line"/>
      <point x="-27" y="33" type="line"/>
    </contour>
  </outline>
</glyph>
<glyph name="M.sc" format="1">
  <advance width="1662"/>
  <outline>
    <contour>
      <point x="898" y="1165" type="move" name="top"/>
    </contour>
    <contour>
      <point x="738" y="0" type="move" name="bottom"/>
    </contour>
    <contour>
      <point x="-32" y="0" type="line"/>
      <point x="359" y="0" type="line"/>
      <point x="362" y="33" type="line"/>
      <point x="196" y="113" type="line"/>
      <point x="387" y="826" type="line"/>
      <point x="458" y="1032" type="line"/>
      <point x="524" y="845" type="line"/>
      <point x="682" y="0" type="line"/>
      <point x="773" y="0" type="line"/>
      <point x="1190" y="825" type="line"/>
      <point x="1324" y="1033" type="line"/>
      <point x="1305" y="859" type="line"/>
      <point x="1292" y="60" type="line"/>
      <point x="1123" y="31" type="line"/>
      <point x="1119" y="0" type="line"/>
      <point x="1594" y="0" type="line"/>
      <point x="1596" y="28" type="line"/>
      <point x="1446" y="59" type="line"/>
      <point x="1453" y="1098" type="line"/>
      <point x="1598" y="1138" type="line"/>
      <point x="1602" y="1165" type="line"/>
      <point x="1288" y="1165" type="line"/>
      <point x="877" y="460" type="line"/>
      <point x="794" y="185" type="line"/>
      <point x="759" y="457" type="line"/>
      <point x="587" y="1165" type="line"/>
      <point x="242" y="1165" type="line"/>
      <point x="239" y="1136" type="line"/>
      <point x="384" y="1103" type="line"/>
      <point x="105" y="114" type="line"/>
      <point x="-29" y="33" type="line"/>
    </contour>
  </outline>
</glyph>
<glyph name="N.sc" format="1">
  <advance width="1208"/>
  <outline>
    <contour>
      <point x="762" y="1165" type="move" name="top"/>
    </contour>
    <contour>
      <point x="641" y="0" type="move" name="bottom"/>
    </contour>
    <contour>
      <point x="-28" y="28" type="line"/>
      <point x="-31" y="0" type="line"/>
      <point x="330" y="0" type="line"/>
      <point x="334" y="28" type="line"/>
      <point x="194" y="58" type="line"/>
      <point x="316" y="1116" type="line"/>
      <point x="289" y="1112" type="line"/>
      <point x="394" y="855" type="line"/>
      <point x="862" y="0" type="line"/>
      <point x="982" y="0" type="line"/>
      <point x="1140" y="1107" type="line"/>
      <point x="1275" y="1137" type="line"/>
      <point x="1278" y="1165" type="line"/>
      <point x="917" y="1165" type="line"/>
      <point x="913" y="1137" type="line"/>
      <point x="1053" y="1107" type="line"/>
      <point x="932" y="94" type="line"/>
      <point x="963" y="107" type="line"/>
      <point x="864" y="337" type="line"/>
      <point x="397" y="1165" type="line"/>
      <point x="135" y="1165" type="line"/>
      <point x="131" y="1136" type="line"/>
      <point x="257" y="1112" type="line"/>
      <point x="106" y="58" type="line"/>
    </contour>
  </outline>
</glyph>
<glyph name="O.sc" format="1">
  <advance width="1197"/>
  <outline>
    <contour>
      <point x="121" y="1165" type="move" name="topleft"/>
    </contour>
    <contour>
      <point x="618" y="583" type="move" name="center"/>
    </contour>
    <contour>
      <point x="535" y="0" type="move" name="bottom"/>
    </contour>
    <contour>
      <point x="700" y="1165" type="move" name="top"/>
    </contour>
    <contour>
      <point x="1265" y="1165" type="move" name="topright"/>
    </contour>
    <contour>
      <point x="996" y="10" type="move" name="ogonek"/>
    </contour>
    <contour>
      <point x="544" y="-18" type="curve"/>
      <point x="919" y="-18"/>
      <point x="1174" y="304"/>
      <point x="1159" y="694" type="curve"/>
      <point x="1149" y="975"/>
      <point x="1004" y="1179"/>
      <point x="695" y="1179" type="curve"/>
      <point x="324" y="1179"/>
      <point x="62" y="866"/>
      <point x="76" y="473" type="curve"/>
      <point x="86" y="185"/>
      <point x="239" y="-18"/>
    </contour>
    <contour>
      <point x="564" y="24" type="curve"/>
      <point x="362" y="24"/>
      <point x="248" y="214"/>
      <point x="239" y="467" type="curve"/>
      <point x="228" y="839"/>
      <point x="416" y="1137"/>
      <point x="675" y="1137" type="curve"/>
      <point x="883" y="1138"/>
      <point x="986" y="956"/>
      <point x="996" y="699" type="curve"/>
      <point x="1009" y="339"/>
      <point x="823" y="24"/>
    </contour>
  </outline>
</glyph>
<glyph name="P.sc" format="1">
  <advance width="1080"/>
  <outline>
    <contour>
      <point x="208" y="-130" type="move" name="btm"/>
    </contour>
    <contour>
      <point x="644" y="1165" type="move" name="top"/>
    </contour>
    <contour>
      <point x="-31" y="0" type="line"/>
      <point x="468" y="0" type="line"/>
      <point x="472" y="33" type="line"/>
      <point x="259" y="93" type="line"/>
      <point x="413" y="1140" type="line"/>
      <point x="374" y="1127" type="line"/>
      <point x="432" y="1127"/>
      <point x="539" y="1126"/>
      <point x="594" y="1126" type="curve"/>
      <point x="786" y="1126"/>
      <point x="879" y="1005"/>
      <point x="879" y="898" type="curve"/>
      <point x="878" y="829"/>
      <point x="760" y="428"/>
      <point x="495" y="428" type="curve"/>
      <point x="445" y="428"/>
      <point x="359" y="423"/>
      <point x="306" y="434" type="curve"/>
      <point x="296" y="376" type="line"/>
      <point x="349" y="368"/>
      <point x="415" y="367"/>
      <point x="493" y="367" type="curve"/>
      <point x="809" y="367"/>
      <point x="1049" y="809"/>
      <point x="1043" y="829" type="curve"/>
      <point x="1036" y="1019"/>
      <point x="888" y="1173"/>
      <point x="619" y="1170" type="curve"/>
      <point x="522" y="1168"/>
      <point x="442" y="1165"/>
      <point x="343" y="1165" type="curve"/>
      <point x="136" y="1165" type="line"/>
      <point x="132" y="1137" type="line"/>
      <point x="257" y="1102" type="line"/>
      <point x="106" y="60" type="line"/>
      <point x="-27" y="31" type="line"/>
    </contour>
  </outline>
</glyph>
<glyph name="Q.sc" format="1">
  <advance width="1197"/>
  <outline>
    <contour>
      <point x="819" y="-282" type="curve"/>
      <point x="925" y="-282"/>
      <point x="1031" y="-247"/>
      <point x="1076" y="-217" type="curve"/>
      <point x="1072" y="-122" type="line"/>
      <point x="1018" y="-143"/>
      <point x="930" y="-158"/>
      <point x="867" y="-158" type="curve"/>
      <point x="730" y="-158"/>
      <point x="601" y="-138"/>
      <point x="597" y="-6" type="curve"/>
      <point x="558" y="-13" type="line"/>
      <point x="486" y="-201"/>
      <point x="648" y="-282"/>
    </contour>
    <contour>
      <point x="544" y="-18" type="curve"/>
      <point x="919" y="-18"/>
      <point x="1174" y="304"/>
      <point x="1159" y="694" type="curve"/>
      <point x="1149" y="975"/>
      <point x="1004" y="1179"/>
      <point x="695" y="1179" type="curve"/>
      <point x="324" y="1179"/>
      <point x="62" y="866"/>
      <point x="76" y="473" type="curve"/>
      <point x="86" y="185"/>
      <point x="239" y="-18"/>
    </contour>
    <contour>
      <point x="564" y="24" type="curve"/>
      <point x="362" y="24"/>
      <point x="248" y="214"/>
      <point x="239" y="467" type="curve"/>
      <point x="228" y="839"/>
      <point x="416" y="1137"/>
      <point x="675" y="1137" type="curve"/>
      <point x="883" y="1138"/>
      <point x="986" y="956"/>
      <point x="996" y="699" type="curve"/>
      <point x="1009" y="339"/>
      <point x="823" y="24"/>
    </contour>
  </outline>
</glyph>
<glyph name="R.sc" format="1">
  <advance width="1171"/>
  <outline>
    <contour>
      <point x="654" y="1165" type="move" name="top"/>
    </contour>
    <contour>
      <point x="624" y="0" type="move" name="bottom"/>
    </contour>
    <contour>
      <point x="-28" y="29" type="line"/>
      <point x="-32" y="0" type="line"/>
      <point x="437" y="0" type="line"/>
      <point x="442" y="29" type="line"/>
      <point x="263" y="54" type="line"/>
      <point x="417" y="1137" type="line"/>
      <point x="378" y="1114" type="line"/>
      <point x="435" y="1123"/>
      <point x="541" y="1134"/>
      <point x="595" y="1134" type="curve"/>
      <point x="786" y="1134"/>
      <point x="877" y="1049"/>
      <point x="879" y="902" type="curve"/>
      <point x="887" y="734"/>
      <point x="763" y="567"/>
      <point x="552" y="564" type="curve"/>
      <point x="516" y="564"/>
      <point x="369" y="564"/>
      <point x="324" y="567" type="curve"/>
      <point x="314" y="521" type="line"/>
      <point x="365" y="520"/>
      <point x="511" y="521"/>
      <point x="529" y="521" type="curve"/>
      <point x="608" y="513"/>
      <point x="698" y="348"/>
      <point x="770" y="197" type="curve"/>
      <point x="840" y="54"/>
      <point x="881" y="0"/>
      <point x="911" y="0" type="curve"/>
      <point x="1081" y="0" type="line"/>
      <point x="1086" y="29" type="line"/>
      <point x="997" y="32"/>
      <point x="973" y="97"/>
      <point x="894" y="260" type="curve"/>
      <point x="852" y="364"/>
      <point x="752" y="552"/>
      <point x="616" y="548" type="curve"/>
      <point x="599" y="525" type="line"/>
      <point x="885" y="568"/>
      <point x="1045" y="711"/>
      <point x="1038" y="909" type="curve"/>
      <point x="1031" y="1086"/>
      <point x="902" y="1177"/>
      <point x="598" y="1177" type="curve"/>
      <point x="515" y="1177"/>
      <point x="436" y="1165"/>
      <point x="357" y="1165" type="curve"/>
      <point x="136" y="1165" type="line"/>
      <point x="132" y="1137" type="line"/>
      <point x="256" y="1112" type="line"/>
      <point x="105" y="54" type="line"/>
    </contour>
  </outline>
</glyph>
<glyph name="S.sc" format="1">
  <advance width="888"/>
  <outline>
    <contour>
      <point x="542" y="1165" type="move" name="top"/>
    </contour>
    <contour>
      <point x="374" y="0" type="move" name="bottom"/>
    </contour>
    <contour>
      <point x="353" y="-20" type="curve"/>
      <point x="617" y="-20"/>
      <point x="815" y="151"/>
      <point x="808" y="339" type="curve"/>
      <point x="804" y="469"/>
      <point x="658" y="599"/>
      <point x="520" y="687" type="curve"/>
      <point x="390" y="815"/>
      <point x="267" y="875"/>
      <point x="268" y="930" type="curve"/>
      <point x="267" y="1055"/>
      <point x="400" y="1134"/>
      <point x="543" y="1134" type="curve"/>
      <point x="652" y="1134"/>
      <point x="710" y="1126"/>
      <point x="748" y="1120" type="curve"/>
      <point x="760" y="870" type="line"/>
      <point x="818" y="870" type="line"/>
      <point x="854" y="1131" type="line"/>
      <point x="804" y="1163"/>
      <point x="683" y="1181"/>
      <point x="549" y="1181" type="curve"/>
      <point x="300" y="1181"/>
      <point x="120" y="1077"/>
      <point x="128" y="767" type="curve"/>
      <point x="132" y="630"/>
      <point x="301" y="511"/>
      <point x="434" y="412" type="curve"/>
      <point x="558" y="292"/>
      <point x="663" y="243"/>
      <point x="660" y="166" type="curve"/>
      <point x="653" y="129"/>
      <point x="492" y="28"/>
      <point x="358" y="28" type="curve"/>
      <point x="252" y="28"/>
      <point x="174" y="78"/>
      <point x="123" y="108" type="curve"/>
      <point x="111" y="334" type="line"/>
      <point x="47" y="334" type="line"/>
      <point x="9" y="66" type="line"/>
      <point x="54" y="38"/>
      <point x="214" y="-20"/>
    </contour>
  </outline>
</glyph>
<glyph name="T.sc" format="1">
  <advance width="1171"/>
  <outline>
    <contour>
      <point x="669" y="1165" type="move" name="top"/>
    </contour>
    <contour>
      <point x="515" y="0" type="move" name="bottom"/>
    </contour>
    <contour>
      <point x="250" y="29" type="line"/>
      <point x="246" y="0" type="line"/>
      <point x="787" y="0" type="line"/>
      <point x="791" y="29" type="line"/>
      <point x="598" y="56" type="line"/>
      <point x="748" y="1117" type="line"/>
      <point x="1067" y="1105" type="line"/>
      <point x="1086" y="815" type="line"/>
      <point x="1146" y="816" type="line"/>
      <point x="1180" y="1165" type="line"/>
      <point x="151" y="1165" type="line"/>
      <point x="95" y="816" type="line"/>
      <point x="158" y="818" type="line"/>
      <point x="242" y="1105" type="line"/>
      <point x="591" y="1117" type="line"/>
      <point x="441" y="56" type="line"/>
    </contour>
  </outline>
</glyph>
<glyph name="U.sc" format="1">
  <advance width="1238"/>
  <outline>
    <contour>
      <point x="719" y="1165" type="move" name="top"/>
    </contour>
    <contour>
      <point x="733" y="16" type="move" name="ogonek"/>
    </contour>
    <contour>
      <point x="1317" y="1165" type="move" name="topright"/>
    </contour>
    <contour>
      <point x="570" y="0" type="move" name="bottom"/>
    </contour>
    <contour>
      <point x="574" y="-16" type="curve"/>
      <point x="871" y="-16"/>
      <point x="1037" y="146"/>
      <point x="1082" y="480" type="curve"/>
      <point x="1163" y="1112" type="line"/>
      <point x="1287" y="1137" type="line"/>
      <point x="1291" y="1165" type="line"/>
      <point x="952" y="1165" type="line"/>
      <point x="948" y="1137" type="line"/>
      <point x="1083" y="1112" type="line"/>
      <point x="1015" y="480" type="line" smooth="yes"/>
      <point x="982" y="184"/>
      <point x="821" y="53"/>
      <point x="601" y="53" type="curve"/>
      <point x="384" y="53"/>
      <point x="306" y="172"/>
      <point x="303" y="334" type="curve"/>
      <point x="302" y="376"/>
      <point x="305" y="421"/>
      <point x="311" y="468" type="curve"/>
      <point x="395" y="1112" type="line"/>
      <point x="530" y="1137" type="line"/>
      <point x="534" y="1165" type="line"/>
      <point x="119" y="1165" type="line"/>
      <point x="115" y="1137" type="line"/>
      <point x="235" y="1112" type="line"/>
      <point x="150" y="461" type="line" smooth="yes"/>
      <point x="145" y="423"/>
      <point x="144" y="388"/>
      <point x="144" y="354" type="curve"/>
      <point x="149" y="123"/>
      <point x="281" y="-16"/>
    </contour>
  </outline>
</glyph>
<glyph name="V.sc" format="1">
  <advance width="1101"/>
  <outline>
    <contour>
      <point x="710" y="1301" type="move" name="top"/>
    </contour>
    <contour>
      <point x="153" y="1114" type="line"/>
      <point x="410" y="-11" type="line"/>
      <point x="535" y="-6" type="line"/>
      <point x="1120" y="1117" type="line"/>
      <point x="1227" y="1137" type="line"/>
      <point x="1231" y="1165" type="line"/>
      <point x="866" y="1165" type="line"/>
      <point x="863" y="1137" type="line"/>
      <point x="1026" y="1116" type="line"/>
      <point x="585" y="231" type="line"/>
      <point x="495" y="47" type="line"/>
      <point x="529" y="54" type="line"/>
      <point x="506" y="234" type="line"/>
      <point x="313" y="1112" type="line"/>
      <point x="486" y="1136" type="line"/>
      <point x="492" y="1165" type="line"/>
      <point x="55" y="1165" type="line"/>
      <point x="52" y="1136" type="line"/>
    </contour>
  </outline>
</glyph>
<glyph name="W.sc" format="1">
  <advance width="1655"/>
  <outline>
    <contour>
      <point x="937" y="1165" type="move" name="top"/>
    </contour>
    <contour>
      <point x="768" y="0" type="move" name="bottom"/>
    </contour>
    <contour>
      <point x="372" y="9" type="line"/>
      <point x="494" y="5" type="line"/>
      <point x="964" y="1237" type="line"/>
      <point x="877" y="1239" type="line"/>
      <point x="519" y="311" type="line"/>
      <point x="450" y="77" type="line"/>
      <point x="487" y="160" type="line"/>
      <point x="451" y="475" type="line"/>
      <point x="306" y="1104" type="line"/>
      <point x="473" y="1134" type="line"/>
      <point x="476" y="1165" type="line"/>
      <point x="52" y="1165" type="line"/>
      <point x="49" y="1134" type="line"/>
      <point x="150" y="1101" type="line"/>
    </contour>
    <contour>
      <point x="1014" y="9" type="line"/>
      <point x="1136" y="5" type="line"/>
      <point x="1682" y="1102" type="line"/>
      <point x="1789" y="1140" type="line"/>
      <point x="1793" y="1165" type="line"/>
      <point x="1419" y="1165" type="line"/>
      <point x="1416" y="1140" type="line"/>
      <point x="1589" y="1104" type="line"/>
      <point x="1174" y="294" type="line"/>
      <point x="1096" y="77" type="line"/>
      <point x="1125" y="160" type="line"/>
      <point x="1093" y="475" type="line"/>
      <point x="971" y="1104" type="line"/>
      <point x="1117" y="1134" type="line"/>
      <point x="1124" y="1165" type="line"/>
      <point x="690" y="1165" type="line"/>
      <point x="687" y="1134" type="line"/>
      <point x="815" y="1101" type="line"/>
    </contour>
  </outline>
</glyph>
<glyph name="X.sc" format="1">
  <advance width="1145"/>
  <outline>
    <contour>
      <point x="694" y="1301" type="move" name="top"/>
    </contour>
    <contour>
      <point x="509" y="0" type="move" name="bottom"/>
    </contour>
    <contour>
      <point x="626" y="0" type="line"/>
      <point x="1082" y="0" type="line"/>
      <point x="1086" y="31" type="line"/>
      <point x="955" y="81" type="line"/>
      <point x="648" y="736" type="line"/>
      <point x="632" y="731" type="line"/>
      <point x="394" y="1082" type="line"/>
      <point x="547" y="1142" type="line"/>
      <point x="551" y="1167" type="line"/>
      <point x="103" y="1167" type="line"/>
      <point x="99" y="1138" type="line"/>
      <point x="225" y="1083" type="line"/>
      <point x="530" y="466" type="line"/>
      <point x="538" y="453" type="line"/>
      <point x="780" y="83" type="line"/>
      <point x="630" y="31" type="line"/>
    </contour>
    <contour>
      <point x="-54" y="0" type="line"/>
      <point x="328" y="0" type="line"/>
      <point x="332" y="31" type="line"/>
      <point x="180" y="81" type="line"/>
      <point x="585" y="470" type="line"/>
      <point x="620" y="666" type="line"/>
      <point x="1095" y="1080" type="line"/>
      <point x="1227" y="1137" type="line"/>
      <point x="1229" y="1165" type="line"/>
      <point x="848" y="1165" type="line"/>
      <point x="844" y="1137" type="line"/>
      <point x="994" y="1083" type="line"/>
      <point x="609" y="684" type="line"/>
      <point x="570" y="484" type="line"/>
      <point x="76" y="83" type="line"/>
      <point x="-52" y="31" type="line"/>
    </contour>
  </outline>
</glyph>
<glyph name="Y.sc" format="1">
  <advance width="1018"/>
  <outline>
    <contour>
      <point x="445" y="-130" type="move" name="btm"/>
    </contour>
    <contour>
      <point x="101" y="1165" type="move" name="topleft"/>
    </contour>
    <contour>
      <point x="610" y="1165" type="move" name="top"/>
    </contour>
    <contour>
      <point x="432" y="0" type="move" name="bottom"/>
    </contour>
    <contour>
      <point x="198" y="0" type="line"/>
      <point x="735" y="0" type="line"/>
      <point x="739" y="33" type="line"/>
      <point x="541" y="78" type="line"/>
      <point x="596" y="773" type="line"/>
      <point x="548" y="480" type="line"/>
      <point x="1044" y="1099" type="line"/>
      <point x="1149" y="1140" type="line"/>
      <point x="1152" y="1165" type="line"/>
      <point x="813" y="1165" type="line"/>
      <point x="809" y="1140" type="line"/>
      <point x="947" y="1101" type="line"/>
      <point x="625" y="694" type="line"/>
      <point x="529" y="477" type="line"/>
      <point x="575" y="606" type="line"/>
      <point x="516" y="782" type="line"/>
      <point x="309" y="1094" type="line"/>
      <point x="462" y="1140" type="line"/>
      <point x="466" y="1165" type="line"/>
      <point x="49" y="1165" type="line"/>
      <point x="44" y="1140" type="line"/>
      <point x="145" y="1101" type="line"/>
      <point x="478" y="447" type="line"/>
      <point x="448" y="751" type="line"/>
      <point x="393" y="79" type="line"/>
      <point x="202" y="33" type="line"/>
    </contour>
  </outline>
</glyph>
<glyph name="Z.sc" format="1">
  <advance width="1081"/>
  <outline>
    <contour>
      <point x="616" y="1165" type="move" name="top"/>
    </contour>
    <contour>
      <point x="491" y="0" type="move" name="bottom"/>
    </contour>
    <contour>
      <point x="-8" y="0" type="line"/>
      <point x="917" y="0" type="line"/>
      <point x="992" y="429" type="line"/>
      <point x="928" y="445" type="line"/>
      <point x="823" y="43" type="line"/>
      <point x="144" y="34" type="line"/>
      <point x="299" y="122" type="line"/>
      <point x="1086" y="1142" type="line"/>
      <point x="1074" y="1165" type="line"/>
      <point x="217" y="1165" type="line"/>
      <point x="172" y="766" type="line"/>
      <point x="228" y="773" type="line"/>
      <point x="329" y="1104" type="line"/>
      <point x="917" y="1130" type="line"/>
      <point x="745" y="1062" type="line"/>
      <point x="-23" y="20" type="line"/>
    </contour>
  </outline>
</glyph>
